# xmcd
#
# Track frame offsets:
#  150
#  27706
#  49569
#  69853
#  89691
#  108318
#  126381
#  150931
#  167039
#  188589
#  207974
#  225386
#  248435
#  265512
#  285177
#  305787
#
# Disc length: 4302 seconds
#
# Revision: 0
# Processed by: cddbd v1.4PL0 Copyright (c) Steve Scherf et al.
# Submitted via: AltoMP3_Maker 3.0
#
DISCID=ca10cc10
DTITLE=王馨平等 - 女人篇国语经典（2）
DYEAR=1900
DGENRE=
TTITLE0=伤痕
TTITLE1=囚鸟
TTITLE2=痴痴的等
TTITLE3=最浪漫的事
TTITLE4=我是不是你最可爱的
TTITLE5=味道
TTITLE6=沉默的祝福
TTITLE7=是否
TTITLE8=爱情的故事
TTITLE9=爱你十分泪七分
TTITLE10=其实我还是有些在乎
TTITLE11=相见不如怀念
TTITLE12=野花
TTITLE13=但愿人长久
TTITLE14=至少还有你
TTITLE15=青藏高原
EXTD=
EXTT0=
EXTT1=
EXTT2=
EXTT3=
EXTT4=
EXTT5=
EXTT6=
EXTT7=
EXTT8=
EXTT9=
EXTT10=
EXTT11=
EXTT12=
EXTT13=
EXTT14=
EXTT15=
PLAYORDER=
